<svg xmlns="http://www.w3.org/2000/svg" xmlns:xlink="http://www.w3.org/1999/xlink" xmlns:lucid="lucid" width="1604" height="1141.5"><g transform="translate(-78 -118.5)" lucid:page-tab-id="0_0"><path d="M349.12 167.4l-4.9 7.56a3.23 3.23 0 0 0 2.74 5l36.36-.28a3.13 3.13 0 0 0 2.54-4.94l-6.62-9.36a.43.43 0 0 0-.48-.17l-.3.1" stroke="#000" stroke-width="3" fill="#ffd9d9"/><path d="M341.8 134.64s1.38-2.46 1.98-3.42c.66-.96.72-1.5 2.4-3.36 1.74-1.8 3.3-3.24 5.52-4.44 2.28-1.26 3.54-2.46 7.2-2.88 3.66-.48 4.74-.54 4.74-.54l30.36.1a6 6 0 0 1 5.98 6.02l-.02 10.74a6 6 0 0 1-6.02 5.97l-7.5-.03s.24 2.1.24 3.36c0 1.32.12 2.64-.3 4.62-.36 1.98-.72 3.72-1.8 6.12s-2.1 4.2-2.88 5.22c-.78 1.08-1.32 1.8-2.94 3.36-1.62 1.62-2.58 2.4-4.44 3.42-1.86 1.08-2.94 1.74-4.26 2.1-1.38.42-1.8.72-3.96.96-2.16.18-3.54.3-4.98.18-1.44-.18-3.06-.36-4.32-.84-1.32-.48-3.48-1.44-4.68-2.16-1.26-.72-1.38-.48-3.06-1.92-1.68-1.44-2.1-1.32-3.54-3.36-1.5-1.98-2.88-3.84-3.72-6.12-.84-2.28-1.8-5.58-1.8-5.58" stroke="#000" stroke-width="3" fill="#ffd9d9"/><path d="M355.24 139.8s.6-.96 1.14-1.5c.6-.54 1.26-1.08 2.04-1.56s1.44-.84 2.4-1.08c1.02-.3 2.7-.36 2.7-.36s1.86.12 2.88.66c1.08.48 2.46 1.2 3.36 2.28.9 1.14 1.2 1.56 1.62 2.4.48.9.78 1.38 1.08 2.52.24 1.14.42 2.16.42 2.76 0 .66.06 1.08-.06 1.98-.18.96-.06 1.14-.42 2.1-.3.96-.24 1.08-.84 2.1-.54 1.02-.6 1.26-1.2 1.98-.66.78-.84 1.08-1.56 1.62-.78.54-.96.78-2.04 1.2-1.08.48-1.26.6-2.1.72-.78.12-1.14.12-1.86.12-.78-.06-.96 0-1.8-.24-.78-.24-1.74-.6-1.74-.6s-.6-.3-1.2-.72-.66-.36-1.38-1.14c-.72-.84-1.02-.9-1.62-2.04l-.54-1.14" stroke="#000" stroke-width="3" fill="#ffd9d9"/><use xlink:href="#a" transform="matrix(1,0,0,1,310,185) translate(29.759114583333336 28.08376736111111)"/><path d="M720 290c0 27.6-22.4 50-50 50s-50-22.4-50-50 22.4-50 50-50 50 22.4 50 50z" stroke="#000" stroke-width="3" fill="#ffdda6"/><path d="M620 292.6h10.5l15.8-26.3 36.9 52.6 26.3-26.3H720" stroke="#000" stroke-width="3" fill="none"/><use xlink:href="#b" transform="matrix(1,0,0,1,590,345) translate(2.8244357638888857 28.08376736111111)"/><use xlink:href="#c" transform="matrix(1,0,0,1,590,345) translate(90.32443576388889 28.08376736111111)"/><path d="M1569.12 1107.4l-4.9 7.56a3.23 3.23 0 0 0 2.74 5l36.36-.28a3.13 3.13 0 0 0 2.54-4.94l-6.62-9.36a.43.43 0 0 0-.48-.17l-.3.1" stroke="#000" stroke-width="3" fill="#ffd9d9"/><path d="M1561.8 1074.64s1.38-2.46 1.98-3.42c.66-.96.72-1.5 2.4-3.36 1.74-1.8 3.3-3.24 5.52-4.44 2.28-1.26 3.54-2.46 7.2-2.88 3.66-.48 4.74-.54 4.74-.54l30.36.1a6 6 0 0 1 5.98 6.02l-.02 10.74a6 6 0 0 1-6.02 5.97l-7.5-.03s.24 2.1.24 3.36c0 1.32.12 2.64-.3 4.62-.36 1.98-.72 3.72-1.8 6.12s-2.1 4.2-2.88 5.22c-.78 1.08-1.32 1.8-2.94 3.36-1.62 1.62-2.58 2.4-4.44 3.42-1.86 1.08-2.94 1.74-4.26 2.1-1.38.42-1.8.72-3.96.96-2.16.18-3.54.3-4.98.18-1.44-.18-3.06-.36-4.32-.84-1.32-.48-3.48-1.44-4.68-2.16-1.26-.72-1.38-.48-3.06-1.92-1.68-1.44-2.1-1.32-3.54-3.36-1.5-1.98-2.88-3.84-3.72-6.12-.84-2.28-1.8-5.58-1.8-5.58" stroke="#000" stroke-width="3" fill="#ffd9d9"/><path d="M1575.24 1079.8s.6-.96 1.14-1.5c.6-.54 1.26-1.08 2.04-1.56s1.44-.84 2.4-1.08c1.02-.3 2.7-.36 2.7-.36s1.86.12 2.88.66c1.08.48 2.46 1.2 3.36 2.28.9 1.14 1.2 1.56 1.62 2.4.48.9.78 1.38 1.08 2.52.24 1.14.42 2.16.42 2.76 0 .66.06 1.08-.06 1.98-.18.96-.06 1.14-.42 2.1-.3.96-.24 1.08-.84 2.1-.54 1.02-.6 1.26-1.2 1.98-.66.78-.84 1.08-1.56 1.62-.78.54-.96.78-2.04 1.2-1.08.48-1.26.6-2.1.72-.78.12-1.14.12-1.86.12-.78-.06-.96 0-1.8-.24-.78-.24-1.74-.6-1.74-.6s-.6-.3-1.2-.72-.66-.36-1.38-1.14c-.72-.84-1.02-.9-1.62-2.04l-.54-1.14" stroke="#000" stroke-width="3" fill="#ffd9d9"/><use xlink:href="#d" transform="matrix(1,0,0,1,1530,1125) translate(30.01410590277778 28.08376736111111)"/><path d="M723.5 290H834a6 6 0 0 1 6 6v62.98" stroke="#140eb6" stroke-width="4" fill="none"/><path d="M723.55 291.98h-2.15l.1-1.97-.07-1.98h2.12zM841.98 361.26l-.8-.2L840 361l-1.17.1-.8.2v-2.35h3.95z" stroke="#140eb6" stroke-width=".05" fill="#140eb6"/><path d="M840 421.02v54.74" stroke="#140eb6" stroke-width="4" fill="none"/><path d="M838.83 418.93l1.17.1 1.17-.1.8-.2v2.34h-3.95v-2.33z" stroke="#140eb6" stroke-width=".05" fill="#140eb6"/><path d="M840 492.03l-4.63-14.27h9.26z" stroke="#140eb6" stroke-width="4" fill="#140eb6"/><path d="M840 583.5V704a6 6 0 0 0 6 6h32.98" stroke="#140eb6" stroke-width="4" fill="none"/><path d="M839.98 581.5l2-.07v2.12H838v-2.17zM881.07 708.83l-.1 1.17.1 1.17.2.8h-2.34v-3.95h2.34z" stroke="#140eb6" stroke-width=".05" fill="#140eb6"/><path d="M941.02 710h39.74" stroke="#140eb6" stroke-width="4" fill="none"/><path d="M941.07 711.98h-2.34l.2-.8.1-1.18-.1-1.17-.2-.8h2.34z" stroke="#140eb6" stroke-width=".05" fill="#140eb6"/><path d="M997.03 710l-14.27 4.63v-9.26z" stroke="#140eb6" stroke-width="4" fill="#140eb6"/><path d="M1038.5 710h60.48M1038.55 710h-5.05" stroke="#140eb6" stroke-width="4" fill="none"/><path d="M1101.07 708.83l-.1 1.17.1 1.17.2.8h-2.34v-3.95h2.34z" stroke="#140eb6" stroke-width=".05" fill="#140eb6"/><path d="M1161.02 710h54.74" stroke="#140eb6" stroke-width="4" fill="none"/><path d="M1161.07 711.98h-2.34l.2-.8.1-1.18-.1-1.17-.2-.8h2.34z" stroke="#140eb6" stroke-width=".05" fill="#140eb6"/><path d="M1232.03 710l-14.27 4.63v-9.26z" stroke="#140eb6" stroke-width="4" fill="#140eb6"/><path d="M1486.9 661.02v134.16" stroke="#140eb6" stroke-width="4" fill="none"/><path d="M1485.72 658.93l1.17.1 1.17-.1.8-.2v2.34h-3.95v-2.34z" stroke="#140eb6" stroke-width=".05" fill="#140eb6"/><path d="M1486.9 811.45l-4.64-14.27h9.27z" stroke="#140eb6" stroke-width="4" fill="#140eb6"/><path d="M1300 555.75v-32a6 6 0 0 1 6-6h174.9a6 6 0 0 1 6 6v75.23" stroke="#140eb6" stroke-width="4" fill="none"/><path d="M1301.97 557.82l-1.98-.07-1.97.08v-2.13h3.94zM1488.87 601.26l-.8-.2-1.17-.08-1.18.1-.8.18v-2.33h3.95z" stroke="#140eb6" stroke-width=".05" fill="#140eb6"/><path d="M510 241.02v45.65a6 6 0 0 0 6 6h83.6" stroke="#140eb6" stroke-width="4" fill="none"/><path d="M508.83 238.93l1.17.1 1.17-.1.8-.2v2.34h-3.95v-2.33z" stroke="#140eb6" stroke-width=".05" fill="#140eb6"/><path d="M614.6 292.67l-13 7.5v-15z" stroke="#140eb6" stroke-width="4" fill="#140eb6"/><path d="M403.47 131.12H504a6 6 0 0 1 6 6v41.86" stroke="#140eb6" stroke-width="4" fill="none"/><path d="M403.52 133.1h-2.05v-3.96h2.05zM511.98 181.26l-.8-.2L510 181l-1.17.1-.8.18v-2.33h3.95z" stroke="#140eb6" stroke-width=".05" fill="#140eb6"/><path d="M317.48 150h-56.46" stroke="#140eb6" stroke-width="4" fill="none"/><path d="M333.75 150l-14.27 4.63v-9.26z" stroke="#140eb6" stroke-width="4" fill="#140eb6"/><path d="M261.07 151.97h-2.33l.2-.8.08-1.17-.1-1.17-.2-.8h2.35z" stroke="#140eb6" stroke-width=".05" fill="#140eb6"/><path d="M198.98 150H82" stroke="#140eb6" stroke-width="4" fill="none"/><path d="M201.07 148.83l-.1 1.17.1 1.17.2.8h-2.34v-3.94h2.33z" stroke="#140eb6" stroke-width=".05" fill="#140eb6"/><path d="M82.05 150H80M1300 802.75v76.23" stroke="#140eb6" stroke-width="4" fill="none"/><path d="M1301.97 802.8h-3.94v-2.12l1.98.07 1.97-.08zM1301.97 881.26l-.8-.2-1.17-.08-1.17.1-.8.18v-2.33h3.94z" stroke="#140eb6" stroke-width=".05" fill="#140eb6"/><path d="M1300 941.02v135.72a6 6 0 0 0 6 6h232.23" stroke="#140eb6" stroke-width="4" fill="none"/><path d="M1298.83 938.93l1.17.1 1.17-.1.8-.2v2.34h-3.94v-2.34z" stroke="#140eb6" stroke-width=".05" fill="#140eb6"/><path d="M1554.5 1082.74l-14.27 4.64v-9.27z" stroke="#140eb6" stroke-width="4" fill="#140eb6"/><path d="M804.1 554.72h-14.85m-14.84 0h-29.68m-14.84 0h-29.7m-14.84 0h-29.7m-14.83 0h-29.68m-14.85 0h-29.7m-14.83 0h-29.7m-14.83 0h-29.7m-14.83 0h-29.7m-14.83 0h-29.7m-14.84 0h-29.7m-14.83 0h-29.7m-14.84 0h-29.7m-14.83 0h-29.7m-14.84 0h-14.84M804.06 554.72h4.54" stroke="#008a0e" stroke-width="3" fill="none"/><path d="M164.85 554.72l14.27-4.63v9.25z" stroke="#008a0e" stroke-width="3" fill="#008a0e"/><path d="M1623.47 1071.12h32a6 6 0 0 0 6-6V986a6 6 0 0 0-6-6H676a6 6 0 0 1-6-6v-52.98" stroke="#140eb6" stroke-width="4" fill="none"/><path d="M1623.52 1073.1h-2.05v-3.96h2.05zM668.83 918.93l1.17.1 1.17-.1.8-.2v2.34h-3.95v-2.34z" stroke="#140eb6" stroke-width=".05" fill="#140eb6"/><path d="M670 858.98V364.24" stroke="#140eb6" stroke-width="4" fill="none"/><path d="M671.98 861.26l-.8-.2L670 861l-1.17.1-.8.18v-2.33h3.95z" stroke="#140eb6" stroke-width=".05" fill="#140eb6"/><path d="M670 347.97l4.63 14.27h-9.26z" stroke="#140eb6" stroke-width="4" fill="#140eb6"/><path d="M1519.3 850c0 16.9-14.7 30.6-32.7 30.6-18.1 0-32.8-13.7-32.8-30.6 0-16.9 14.7-30.6 32.8-30.6 18 0 32.7 13.7 32.7 30.6z" stroke="#000" stroke-width="3" fill="#dedeff"/><path d="M1533.1 806.5L1440 900" stroke="#000" stroke-width="3" fill="none"/><path d="M1540 800l-4.4 13.8-10.1-8.8z" stroke="#000" stroke-width="3"/><path d="M1453.8 851.6h6.9l10.3-16.1 24.2 32.2 17.2-16.1h6.9" stroke="#000" stroke-width="3" fill="none"/><use xlink:href="#e" transform="matrix(1,0,0,1,1410,905) translate(8.721788194444443 28.08376736111111)"/><use xlink:href="#f" transform="matrix(1,0,0,1,1410,905) translate(83.72178819444444 28.08376736111111)"/><path d="M1240 589.25v180c0 16.57 26.86 30 60 30s60-13.43 60-30v-180c0-16.57-26.86-30-60-30s-60 13.43-60 30z" stroke="#000" stroke-width="3" fill="#fff7a1"/><use xlink:href="#g" transform="matrix(1,0,0,1,1240,804.25) translate(2.0084635416666714 28.08376736111111)"/><use xlink:href="#h" transform="matrix(1,0,0,1,1240,804.25) translate(58.25846354166667 28.08376736111111)"/><path d="M1000 696a6 6 0 0 1 6-6h28a6 6 0 0 1 6 6v28a6 6 0 0 1-6 6h-28a6 6 0 0 1-6-6z" fill="none"/><path d="M1004 700v20l15-10zm15 10h2zm2 0l15-10v20z" stroke="#000" fill="#cbc2a3"/><use xlink:href="#i" transform="matrix(1,0,0,1,980,735) translate(11.788194444444446 28.08376736111111)"/><path d="M880 540c0 22.08-17.92 40-40 40s-40-17.92-40-40 17.92-40 40-40 40 17.92 40 40z" stroke="#000" stroke-width="3" fill="#b8f5ed"/><path d="M802.56 525.28h60.56l-36.16 15.12 36.16 15.2-60.56-.88" stroke="#000" stroke-width="3" fill="none"/><use xlink:href="#j" transform="matrix(1,0,0,1,770,585) translate(1.8630642361111143 28.08376736111111)"/><use xlink:href="#k" transform="matrix(1,0,0,1,770,585) translate(70.61306423611111 28.08376736111111)"/><path d="M1281.02 170h376.24" stroke="#140eb6" stroke-width="4" fill="none"/><path d="M1281.07 171.97h-2.34l.2-.8.1-1.17-.1-1.17-.2-.8h2.34z" stroke="#140eb6" stroke-width=".05" fill="#140eb6"/><path d="M1673.53 170l-14.27 4.63v-9.26z" stroke="#140eb6" stroke-width="4" fill="#140eb6"/><path d="M670 236.5V176a6 6 0 0 1 6-6h542.98" stroke="#140eb6" stroke-width="4" fill="none"/><path d="M671.98 238.6l-1.97-.1-1.98.07v-2.12H672zM1221.07 168.83l-.1 1.17.1 1.17.2.8h-2.34v-3.94h2.34z" stroke="#140eb6" stroke-width=".05" fill="#140eb6"/><path d="M784.98 525.28h-14.85m-14.84 0h-29.7m-14.84 0h-29.7m-14.84 0h-29.7m-14.83 0H592m-14.85 0h-29.7m-14.83 0h-29.7m-14.84 0h-29.7m-14.83 0h-29.7m-14.83 0h-29.7m-14.84 0h-29.7m-14.83 0h-29.7m-14.84 0h-29.68m-14.84 0h-29.7m-14.84 0H161.5" stroke="#008a0e" stroke-width="3" fill="none"/><path d="M800.75 525.28l-14.27 4.63v-9.25z" stroke="#008a0e" stroke-width="3" fill="#008a0e"/><path d="M161.54 525.28H160" stroke="#008a0e" stroke-width="3" fill="none"/><path d="M1490 883.85V1224a6 6 0 0 0 6 6h42.98" stroke="#140eb6" stroke-width="4" fill="none"/><path d="M1491.97 883.9h-3.94v-1.83h.15l3.8-.45zM1541.07 1228.83l-.1 1.17.1 1.17.2.8h-2.34v-3.94h2.34z" stroke="#140eb6" stroke-width=".05" fill="#140eb6"/><path d="M1601.02 1230h56.24" stroke="#140eb6" stroke-width="4" fill="none"/><path d="M1601.07 1231.97h-2.34l.2-.8.1-1.17-.1-1.17-.2-.8h2.34z" stroke="#140eb6" stroke-width=".05" fill="#140eb6"/><path d="M1673.53 1230l-14.27 4.63v-9.27z" stroke="#140eb6" stroke-width="4" fill="#140eb6"/><path d="M225.76 124.24a6 6 0 0 1 8.48 0l21.52 21.52a6 6 0 0 1 0 8.48l-21.52 21.52a6 6 0 0 1-8.48 0l-21.52-21.52a6 6 0 0 1 0-8.48z" stroke="#140eb6" stroke-width="3" fill="#fff"/><use xlink:href="#l" transform="matrix(1,0,0,1,205,125) translate(20.48568576388889 33.24652777777778)"/><path d="M505.76 184.24a6 6 0 0 1 8.48 0l21.52 21.52a6 6 0 0 1 0 8.48l-21.52 21.52a6 6 0 0 1-8.48 0l-21.52-21.52a6 6 0 0 1 0-8.48z" stroke="#140eb6" stroke-width="3" fill="#fff"/><use xlink:href="#m" transform="matrix(1,0,0,1,485,185) translate(18.228741319444445 33.24652777777778)"/><path d="M835.76 364.24a6 6 0 0 1 8.48 0l21.52 21.52a6 6 0 0 1 0 8.48l-21.52 21.52a6 6 0 0 1-8.48 0l-21.52-21.52a6 6 0 0 1 0-8.48z" stroke="#140eb6" stroke-width="3" fill="#fff"/><use xlink:href="#n" transform="matrix(1,0,0,1,815,365) translate(18.14193576388889 33.24652777777778)"/><path d="M1245.76 144.24a6 6 0 0 1 8.48 0l21.52 21.52a6 6 0 0 1 0 8.48l-21.52 21.52a6 6 0 0 1-8.48 0l-21.52-21.52a6 6 0 0 1 0-8.48z" stroke="#140eb6" stroke-width="3" fill="#fff"/><use xlink:href="#o" transform="matrix(1,0,0,1,1225,145) translate(17.827265625000003 33.24652777777778)"/><path d="M905.76 684.24a6 6 0 0 1 8.48 0l21.52 21.52a6 6 0 0 1 0 8.48l-21.52 21.52a6 6 0 0 1-8.48 0l-21.52-21.52a6 6 0 0 1 0-8.48z" stroke="#140eb6" stroke-width="3" fill="#fff"/><use xlink:href="#p" transform="matrix(1,0,0,1,885,685) translate(18.25044270833333 33.24652777777778)"/><path d="M1125.76 684.24a6 6 0 0 1 8.48 0l21.52 21.52a6 6 0 0 1 0 8.48l-21.52 21.52a6 6 0 0 1-8.48 0l-21.52-21.52a6 6 0 0 1 0-8.48z" stroke="#140eb6" stroke-width="3" fill="#fff"/><use xlink:href="#q" transform="matrix(1,0,0,1,1105,685) translate(18.114809027777778 33.24652777777778)"/><path d="M1482.65 604.24a6 6 0 0 1 8.5 0l21.5 21.52a6 6 0 0 1 0 8.48l-21.5 21.52a6 6 0 0 1-8.5 0l-21.5-21.52a6 6 0 0 1 0-8.48z" stroke="#140eb6" stroke-width="3" fill="#fff"/><use xlink:href="#r" transform="matrix(1,0,0,1,1461.8953065953813,605) translate(18.717022569444445 33.24652777777778)"/><path d="M1295.76 884.24a6 6 0 0 1 8.48 0l21.52 21.52a6 6 0 0 1 0 8.48l-21.52 21.52a6 6 0 0 1-8.48 0l-21.52-21.52a6 6 0 0 1 0-8.48z" stroke="#140eb6" stroke-width="3" fill="#fff"/><use xlink:href="#s" transform="matrix(1,0,0,1,1275,885) translate(18.131085069444445 33.24652777777778)"/><path d="M1565.76 1204.24a6 6 0 0 1 8.48 0l21.52 21.52a6 6 0 0 1 0 8.48l-21.52 21.52a6 6 0 0 1-8.48 0l-21.52-21.52a6 6 0 0 1 0-8.48z" stroke="#140eb6" stroke-width="3" fill="#fff"/><g><use xlink:href="#t" transform="matrix(1,0,0,1,1545,1205) translate(18.114809027777778 33.24652777777778)"/></g><path d="M665.76 864.24a6 6 0 0 1 8.48 0l21.52 21.52a6 6 0 0 1 0 8.48l-21.52 21.52a6 6 0 0 1-8.48 0l-21.52-21.52a6 6 0 0 1 0-8.48z" stroke="#140eb6" stroke-width="3" fill="#fff"/><g><use xlink:href="#u" transform="matrix(1,0,0,1,645,865) translate(13.47613715277778 33.24652777777778)"/></g><defs><path d="M180 0v-1490h510c348 0 508 209 508 474 0 266-160 477-507 477H370V0H180zm190-706h312c236 0 327-133 327-310 0-176-91-307-329-307H370v617" id="v"/><path d="M798-719v166H144v-166h654" id="w"/><path d="M653-1490V0H466v-1314h-10L96-1047v-204l324-239h233" id="x"/><path d="M646 20c-332 0-524-278-524-764 0-483 194-766 524-766s524 283 524 766c0 485-191 764-524 764zm0-166c218 0 341-220 341-598 0-380-123-601-341-601s-341 222-341 601c0 378 123 598 341 598" id="y"/><g id="a"><use transform="matrix(0.010850694444444444,0,0,0.010850694444444444,0,0)" xlink:href="#v"/><use transform="matrix(0.010850694444444444,0,0,0.010850694444444444,13.183593749999996,0)" xlink:href="#w"/><use transform="matrix(0.010850694444444444,0,0,0.010850694444444444,23.404947916666664,0)" xlink:href="#x"/><use transform="matrix(0.010850694444444444,0,0,0.010850694444444444,32.443576388888886,0)" xlink:href="#y"/><use transform="matrix(0.010850694444444444,0,0,0.010850694444444444,46.46267361111111,0)" xlink:href="#y"/></g><path d="M458 0L52-1490h194c108 439 233 855 324 1313 92-459 221-873 331-1313h216c110 438 234 854 330 1307 92-455 216-869 323-1307h196L1558 0h-221l-256-944c-26-95-50-200-73-331-22 122-44 223-73 331L680 0H458" id="z"/><path d="M154 0v-137l495-537c165-179 249-281 249-418 0-156-121-253-280-253-170 0-278 110-278 278H158c0-264 200-443 465-443 266 0 455 183 455 416 0 161-73 288-336 568L416-179v12h687V0H154" id="A"/><g id="c"><use transform="matrix(0.010850694444444444,0,0,0.010850694444444444,0,0)" xlink:href="#z"/><use transform="matrix(0.010850694444444444,0,0,0.010850694444444444,20.768229166666668,0)" xlink:href="#w"/><use transform="matrix(0.010850694444444444,0,0,0.010850694444444444,30.240885416666664,0)" xlink:href="#A"/><use transform="matrix(0.010850694444444444,0,0,0.010850694444444444,43.79340277777777,0)" xlink:href="#x"/><use transform="matrix(0.010850694444444444,0,0,0.010850694444444444,52.832031249999986,0)" xlink:href="#y"/></g><path d="M626 20c-262 0-458-168-468-396h184c12 133 134 229 284 229 180 0 311-137 311-326 0-192-136-335-323-335-92 0-196 33-255 78l-178-22 88-738h784v167H429l-51 435h8c61-51 160-87 263-87 273 0 474 211 474 499 0 286-210 496-497 496" id="B"/><g id="d"><use transform="matrix(0.010850694444444444,0,0,0.010850694444444444,0,0)" xlink:href="#v"/><use transform="matrix(0.010850694444444444,0,0,0.010850694444444444,13.183593749999996,0)" xlink:href="#w"/><use transform="matrix(0.010850694444444444,0,0,0.010850694444444444,23.404947916666664,0)" xlink:href="#B"/><use transform="matrix(0.010850694444444444,0,0,0.010850694444444444,36.9140625,0)" xlink:href="#x"/><use transform="matrix(0.010850694444444444,0,0,0.010850694444444444,45.95269097222222,0)" xlink:href="#y"/></g><g id="f"><use transform="matrix(0.010850694444444444,0,0,0.010850694444444444,0,0)" xlink:href="#z"/><use transform="matrix(0.010850694444444444,0,0,0.010850694444444444,20.768229166666668,0)" xlink:href="#w"/><use transform="matrix(0.010850694444444444,0,0,0.010850694444444444,30.989583333333336,0)" xlink:href="#B"/><use transform="matrix(0.010850694444444444,0,0,0.010850694444444444,44.49869791666667,0)" xlink:href="#x"/><use transform="matrix(0.010850694444444444,0,0,0.010850694444444444,53.5373263888889,0)" xlink:href="#y"/></g><path d="M180 0v-1490h190c0 262 1 526-3 784 217-279 467-523 702-784h249L716-845 1319 0h-225L585-716 370-489V0H180" id="C"/><path d="M120-303v-155l652-1032h231v1020h202v167h-202V0H821v-303H120zm702-167v-782h-12L323-482v12h499" id="D"/><g id="h"><use transform="matrix(0.010850694444444444,0,0,0.010850694444444444,0,0)" xlink:href="#C"/><use transform="matrix(0.010850694444444444,0,0,0.010850694444444444,12.532552083333332,0)" xlink:href="#w"/><use transform="matrix(0.010850694444444444,0,0,0.010850694444444444,22.75390625,0)" xlink:href="#D"/><use transform="matrix(0.010850694444444444,0,0,0.010850694444444444,36.67534722222222,0)" xlink:href="#x"/><use transform="matrix(0.010850694444444444,0,0,0.010850694444444444,45.71397569444444,0)" xlink:href="#y"/></g><path d="M600 0L52-1490h200c166 485 304 806 458 1336 156-533 285-846 449-1336h202L819 0H600" id="E"/><g id="i"><use transform="matrix(0.010850694444444444,0,0,0.010850694444444444,0,0)" xlink:href="#E"/><use transform="matrix(0.010850694444444444,0,0,0.010850694444444444,14.20355902777778,0)" xlink:href="#w"/><use transform="matrix(0.010850694444444444,0,0,0.010850694444444444,24.424913194444443,0)" xlink:href="#D"/><use transform="matrix(0.010850694444444444,0,0,0.010850694444444444,38.346354166666664,0)" xlink:href="#x"/><use transform="matrix(0.010850694444444444,0,0,0.010850694444444444,47.384982638888886,0)" xlink:href="#x"/></g><path d="M635 20c-292 0-500-160-510-396h192c11 142 145 229 315 229 187 0 323-105 323-260 0-161-125-274-346-274H488v-165h121c174 0 294-100 294-254 0-148-104-245-266-245-152 0-291 85-297 230H157c8-234 222-395 484-395 278 0 448 188 448 400 0 168-95 291-247 336v12c190 31 301 169 301 357 0 244-216 425-508 425" id="F"/><g id="k"><use transform="matrix(0.010850694444444444,0,0,0.010850694444444444,0,0)" xlink:href="#z"/><use transform="matrix(0.010850694444444444,0,0,0.010850694444444444,20.768229166666668,0)" xlink:href="#w"/><use transform="matrix(0.010850694444444444,0,0,0.010850694444444444,30.740017361111114,0)" xlink:href="#F"/><use transform="matrix(0.010850694444444444,0,0,0.010850694444444444,44.46614583333333,0)" xlink:href="#x"/><use transform="matrix(0.010850694444444444,0,0,0.010850694444444444,53.50477430555556,0)" xlink:href="#y"/></g><use transform="matrix(0.010850694444444444,0,0,0.010850694444444444,0,0)" xlink:href="#x" id="l"/><use transform="matrix(0.010850694444444444,0,0,0.010850694444444444,0,0)" xlink:href="#A" id="m"/><use transform="matrix(0.010850694444444444,0,0,0.010850694444444444,0,0)" xlink:href="#F" id="n"/><use transform="matrix(0.010850694444444444,0,0,0.010850694444444444,0,0)" xlink:href="#D" id="o"/><use transform="matrix(0.010850694444444444,0,0,0.010850694444444444,0,0)" xlink:href="#B" id="p"/><path d="M646 20c-249 0-524-159-524-708 0-524 209-822 547-822 250 0 431 161 467 395H950c-33-129-126-227-281-227-229 0-367 208-367 566h12c80-124 212-198 367-198 255 0 467 205 467 493 0 278-198 501-502 501zm0-167c179 0 318-148 318-334 0-182-133-328-313-328-181 0-322 156-322 330 0 176 134 332 317 332" id="G"/><use transform="matrix(0.010850694444444444,0,0,0.010850694444444444,0,0)" xlink:href="#G" id="q"/><path d="M200 0l662-1311v-12H98v-167h963v177L400 0H200" id="H"/><use transform="matrix(0.010850694444444444,0,0,0.010850694444444444,0,0)" xlink:href="#H" id="r"/><path d="M633 20c-303 0-511-173-511-416 0-188 124-348 291-378v-8c-145-37-237-174-237-332 0-227 192-396 457-396 261 0 456 169 456 396 0 158-94 295-235 332v8c162 30 291 190 291 378 0 243-212 416-512 416zm0-165c197 0 322-103 322-261 0-165-138-283-322-283-188 0-324 118-324 283 0 158 123 261 324 261zm0-703c157 0 272-101 272-252 0-149-110-246-272-246-165 0-273 97-273 246 0 151 112 252 273 252" id="I"/><use transform="matrix(0.010850694444444444,0,0,0.010850694444444444,0,0)" xlink:href="#I" id="s"/><path d="M603 20c-253 0-434-161-469-399h188c31 132 124 231 281 231 227 0 367-207 367-568h-12c-80 122-211 199-367 199-257 0-469-206-469-493 0-278 200-505 506-500 245 4 520 158 520 706 0 527-208 824-545 824zm16-703c181 0 324-157 324-332 0-171-135-328-318-328-180 0-317 148-317 332 0 183 131 328 311 328" id="J"/><use transform="matrix(0.010850694444444444,0,0,0.010850694444444444,0,0)" xlink:href="#J" id="t"/><g id="u"><use transform="matrix(0.010850694444444444,0,0,0.010850694444444444,0,0)" xlink:href="#x"/><use transform="matrix(0.010850694444444444,0,0,0.010850694444444444,9.038628472222221,0)" xlink:href="#y"/></g></defs></g></svg>